<svg xmlns="http://www.w3.org/2000/svg" viewBox="-5464 6354 194 75.542">
  <g id="Symbole_19" data-name="Symbole 19" transform="translate(-5580 6273)">
    <g id="Groupe_42" data-name="Groupe 42" transform="translate(161.397 81)">
      <path id="Tracé_90" data-name="Tracé 90" d="M121.451,22.979a7.193,7.193,0,0,1,.749-.861.157.157,0,0,1,.225.112l.524,1.461a.224.224,0,0,0,.3.15l.637-.225c.187-.075.225-.15.187-.337l-2.21-6.18c-.112-.3-.749-.449-.787-.562-.037-.075,0-.112.112-.15l1.985-.712a.137.137,0,0,1,.187.075c.037.15-.375.637-.262.936l2.36,6.592c.15.449-.112.824-.712,1.011l-1.61.562a.976.976,0,0,1-1.273-.375l-.412-1.124A.418.418,0,0,1,121.451,22.979Z" transform="translate(-121.063 -9.758)"/>
      <path id="Tracé_91" data-name="Tracé 91" d="M137.293,17.978c.112.337-.15.861-.787,1.049l-2.434.712c-.562.187-1.049.037-1.161-.412l-1.985-6.7c-.112-.337-.712-.487-.749-.6-.037-.075,0-.112.112-.15l2.022-.6c.075-.037.15,0,.15.075.037.15-.412.6-.3.936l1.873,6.292c.037.15.15.225.337.15l1.423-.412a.212.212,0,0,0,.15-.3l-1.873-6.292c-.112-.337-.712-.487-.749-.6-.037-.075,0-.112.112-.15l2.022-.6c.075-.037.15,0,.15.075.037.15-.412.6-.3.936Z" transform="translate(-126.754 -6.443)"/>
      <path id="Tracé_92" data-name="Tracé 92" d="M150.387,10.03c.037.225.15.337.449.487l2.4.824c.449.15.637.3.749.712l.6,2.434c.112.449-.225.824-.787.936l-2.21.524c-.637.15-1.124-.15-1.2-.524l-.524-2.135c-.037-.112,0-.15.112-.187a6.4,6.4,0,0,1,1.086.3c.112.037.15.112.187.3l.262,1.086a.281.281,0,0,0,.3.187l1.2-.3a.213.213,0,0,0,.187-.3l-.375-1.573a.667.667,0,0,0-.449-.449l-2.36-.824c-.412-.15-.674-.3-.787-.712l-.562-2.322c-.112-.449.225-.824.786-.936l2.21-.524c.637-.15,1.124.15,1.2.524l.412,1.8c.037.112,0,.15-.112.187a6.4,6.4,0,0,1-1.086-.3c-.112-.037-.15-.112-.187-.3L151.7,8.2a.231.231,0,0,0-.3-.187l-1.2.3a.213.213,0,0,0-.187.3Z" transform="translate(-138.313 -4.338)"/>
      <path id="Tracé_93" data-name="Tracé 93" d="M167.145,3.7c.375-.075.9-.262,1.049-.3.075,0,.15.037.15.112l.262,1.423c0,.075,0,.112-.112.15-.075,0-.187-.075-.562-.337-.225-.187-.562-.15-1.086-.037a.237.237,0,0,0-.187.225l1.2,6.4c.075.337.674.524.674.674,0,.075-.037.112-.112.15l-2.06.375c-.075,0-.15,0-.15-.075-.037-.15.449-.562.412-.9l-1.2-6.442c0-.112-.112-.187-.262-.15-.524.112-.824.187-.974.412-.262.375-.3.487-.412.524-.075,0-.15-.037-.15-.112L163.4,4.374c0-.075,0-.112.112-.15.15-.037.712,0,1.086-.075Z" transform="translate(-147.543 -2.089)"/>
      <path id="Tracé_94" data-name="Tracé 94" d="M191.261,9.377c-.075,0-.15-.037-.15-.112,0-.15.524-.524.487-.861L191,1.624c-.037-.337-.6-.6-.6-.749a.1.1,0,0,1,.112-.112l4.457-.375c.262-.037.412.075.412.225l.112,1.273c0,.187,0,.262-.112.337a6.751,6.751,0,0,1-.936.637c-.112,0-.187-.037-.187-.15l-.112-1.2c0-.112-.075-.187-.187-.15l-1.5.112a.2.2,0,0,0-.187.262l.3,3.408,1.536-1.011c.112-.075.187-.15.262-.15s.112.075.112.15l.075.9c0,.15-.075.187-.225.337l-1.648,1.086.15,1.873c.037.337.6.6.6.749a.1.1,0,0,1-.112.112Z" transform="translate(-164.431 -0.201)"/>
      <path id="Tracé_95" data-name="Tracé 95" d="M212.3,8.589l-2.509.037c-.6,0-1.011-.262-1.011-.712L208.7.687c0-.487.375-.749,1.011-.749L212.221-.1c.674,0,1.049.412,1.049.787l.037,7.079C213.344,8.177,212.932,8.589,212.3,8.589ZM211.734.874h-1.5c-.187,0-.262.075-.262.262l.037,6.33c0,.187.075.262.262.262h1.5A.242.242,0,0,0,212,7.5l-.037-6.33A.228.228,0,0,0,211.734.874Z" transform="translate(-175.877 0.1)"/>
      <path id="Tracé_96" data-name="Tracé 96" d="M224.182,8.639c0-.15.6-.412.6-.749l.524-6.816c.037-.337-.487-.712-.487-.861,0-.075.075-.112.15-.112L228.9.437c.749.075,1.161.375,1.086,1.049l-.225,2.809a.784.784,0,0,1-.412.562l-.9.449c.375,1.311.861,2.921.974,3.109.262.412.562.562.524.712,0,.075-.075.112-.15.112l-2.06-.15c-.075,0-.15-.037-.15-.112,0-.15.3-.187.3-.375a.659.659,0,0,0-.037-.225c-.112-.524-.449-1.536-.749-2.434l-.861.412a.422.422,0,0,0-.187.3l-.112,1.423c-.037.337.487.712.487.861,0,.075-.075.112-.15.112l-2.1-.15C224.219,8.752,224.144,8.714,224.182,8.639Zm2.4-7.228-.262,3.483a.2.2,0,0,0,.075.15.762.762,0,0,0,.187-.037l1.536-.749c.3-.15.412-.3.449-.487l.15-2.06c.037-.262-.075-.375-.375-.375l-1.536-.15A.216.216,0,0,0,226.579,1.411Z" transform="translate(-185.554 -0.025)"/>
      <path id="Tracé_97" data-name="Tracé 97" d="M255.827,10.042s2.809-4.756,3.109-5.318a.431.431,0,0,1,.487-.262l1.573.3c.075,0,.15.075.112.15-.037.15-.637.337-.712.674l-1.348,6.7c-.075.337.412.749.375.9,0,.075-.075.112-.15.075l-1.985-.412c-.075,0-.15-.075-.112-.15.037-.15.637-.337.712-.674l.861-4.232c0-.075.038-.15-.037-.187-.075,0-.112.037-.15.112l-2.322,3.97c-.037.037-.037.112-.075.15a2.79,2.79,0,0,0,.075.674c0,.075-.075.112-.15.075l-1.573-.3c-.075,0-.15-.075-.112-.15.037-.112.262-.337.3-.6,0-.075.037-.112,0-.15l-.6-4.607a.2.2,0,0,0-.075-.15c-.075,0-.075.037-.112.15l-.861,4.232c-.075.337.412.749.375.9,0,.075-.075.112-.15.075l-1.985-.412c-.075,0-.15-.075-.112-.15.037-.15.637-.337.712-.674l1.348-6.7c.075-.337-.412-.749-.375-.9,0-.075.075-.112.15-.075l1.573.3a.381.381,0,0,1,.337.412c.075.637.824,6.142.824,6.142s0,.075.037.075C255.79,10.079,255.827,10.042,255.827,10.042Z" transform="translate(-202.443 -1.877)"/>
      <path id="Tracé_98" data-name="Tracé 98" d="M280.98,10.773c.037-.15-.037-.262-.15-.262L279.37,10.1a.157.157,0,0,0-.225.112l-.936,3.333,1.8-.412a1.054,1.054,0,0,1,.3-.037c.075.037.075.112.075.187l-.225.9c-.037.15-.15.15-.337.225l-1.948.449-.449,1.61c-.037.112.037.187.15.225l1.423.375a.255.255,0,0,0,.3-.15l.187-.712c.037-.187.112-.262.225-.3a6.878,6.878,0,0,1,1.086-.225c.112.037.15.112.112.187l-.6,2.172q-.056.281-.449.225l-4.344-1.2c-.075-.037-.112-.075-.112-.15.037-.15.674-.3.749-.637l1.8-6.592c.075-.337-.375-.787-.3-.936.037-.075.075-.112.15-.075l4.307,1.2c.262.075.337.225.3.375l-.337,1.236c-.037.187-.112.262-.225.3a6.611,6.611,0,0,1-1.086.262c-.112-.037-.15-.112-.112-.187Z" transform="translate(-217.596 -5.38)"/>
      <path id="Tracé_99" data-name="Tracé 99" d="M295.669,23.313c-.187-.075-.225-.187-.3-.449l-.936-5.73c-.037-.112-.037-.15-.075-.187-.037,0-.075,0-.112.112l-1.5,4.307c-.112.3.3.787.262.936-.038.075-.075.075-.187.075l-1.91-.674c-.075-.037-.112-.075-.112-.15.037-.15.674-.262.787-.6l2.21-6.442c.112-.3-.3-.787-.262-.936.037-.075.075-.075.187-.075l1.386.487a.506.506,0,0,1,.3.449l.861,6.142c0,.037,0,.112.038.112a.131.131,0,0,0,.075-.037l1.61-4.719c.112-.3-.3-.787-.262-.936.037-.075.075-.075.187-.075l1.91.674c.075.037.112.075.112.15-.037.15-.674.262-.786.6l-2.434,7.116c-.037.112-.112.187-.3.15Z" transform="translate(-227.229 -8.406)"/>
    </g>
    <g id="Groupe_43" data-name="Groupe 43" transform="translate(266.616 136.355)">
      <path id="Tracé_100" data-name="Tracé 100" d="M404.135,154.292H402.6a.524.524,0,0,1-.6-.562v-5.468a.524.524,0,0,1,.6-.562h1.536a.623.623,0,0,1,.637.6v5.356A.63.63,0,0,1,404.135,154.292Zm-.3-5.88h-.9c-.112,0-.15.075-.15.187v4.794c0,.112.037.187.15.187h.9a.171.171,0,0,0,.15-.187v-4.831A.161.161,0,0,0,403.835,148.412Z" transform="translate(-402 -147.7)"/>
      <path id="Tracé_101" data-name="Tracé 101" d="M412.7,154.342c0-.112.337-.375.337-.6v-5.168c0-.262-.337-.487-.337-.6,0-.075.037-.075.075-.075h2.4a.619.619,0,0,1,.712.712v2.135a.534.534,0,0,1-.225.449l-.524.412c.3.974.674,2.172.749,2.285.187.3.375.375.375.487,0,.075-.037.075-.075.075H414.91a.081.081,0,0,1-.075-.075c0-.112.187-.15.187-.3a.5.5,0,0,0-.037-.187c-.112-.375-.337-1.124-.562-1.8l-.487.375a.226.226,0,0,0-.112.225v1.086c0,.262.337.487.337.6,0,.075-.037.075-.075.075h-1.273Q412.7,154.4,412.7,154.342Zm1.124-5.618v2.659a.164.164,0,0,0,.037.112.377.377,0,0,0,.112-.037l.9-.637c.187-.15.225-.262.225-.375v-1.573c0-.187-.075-.262-.225-.262h-.936C413.9,148.537,413.824,148.612,413.824,148.724Z" transform="translate(-408.693 -147.825)"/>
      <path id="Tracé_102" data-name="Tracé 102" d="M426.186,153.643c0,.262.337.487.337.6,0,.075-.037.075-.075.075h-1.273a.081.081,0,0,1-.075-.075c0-.112.337-.375.337-.6v-5.168c0-.262-.337-.487-.337-.6,0-.075.037-.075.075-.075h1.273a.081.081,0,0,1,.075.075c0,.112-.337.375-.337.6Z" transform="translate(-416.448 -147.763)"/>
      <path id="Tracé_103" data-name="Tracé 103" d="M434.248,152.232a2.584,2.584,0,0,1-.3.112c-.037,0-.075-.037-.075-.112v-.674c0-.112.037-.15.15-.225,0,0,.861-.449.936-.449a.1.1,0,0,1,.112.112v2.7a.623.623,0,0,1-.637.6H432.9a.524.524,0,0,1-.6-.562v-5.468a.524.524,0,0,1,.6-.562h1.536a.623.623,0,0,1,.637.6v.861a.358.358,0,0,1-.075.262,4.145,4.145,0,0,1-.6.412.1.1,0,0,1-.112-.112V148.6a.171.171,0,0,0-.15-.187h-.9c-.112,0-.15.075-.15.187v4.794c0,.112.037.187.15.187h.9a.171.171,0,0,0,.15-.187v-1.086C434.285,152.269,434.285,152.232,434.248,152.232Z" transform="translate(-420.952 -147.7)"/>
      <path id="Tracé_104" data-name="Tracé 104" d="M443.986,153.643c0,.262.337.487.337.6,0,.075-.038.075-.075.075h-1.273a.081.081,0,0,1-.075-.075c0-.112.337-.375.337-.6v-5.168c0-.262-.337-.487-.337-.6,0-.075.038-.075.075-.075h1.273a.081.081,0,0,1,.075.075c0,.112-.337.375-.337.6Z" transform="translate(-427.582 -147.763)"/>
      <path id="Tracé_105" data-name="Tracé 105" d="M452.709,154.417c-.112,0-.187-.075-.262-.262l-1.685-3.9c-.037-.075-.037-.112-.075-.112s-.037.037-.037.112v3.483c0,.262.337.487.337.6,0,.075-.037.075-.075.075h-1.236a.081.081,0,0,1-.075-.075c0-.112.337-.375.337-.6v-5.168c0-.262-.337-.487-.337-.6,0-.075.037-.075.075-.075h.9c.112,0,.187.075.262.262l1.723,4.195a.131.131,0,0,0,.037.075.037.037,0,0,0,.037-.037v-3.783c0-.262-.337-.487-.337-.6,0-.075.037-.075.075-.075h1.236a.081.081,0,0,1,.075.075c0,.112-.337.375-.337.6V154.3c0,.075-.037.187-.15.187h-.487Z" transform="translate(-431.772 -147.825)"/>
      <path id="Tracé_106" data-name="Tracé 106" d="M465.384,147.7c.075,0,.112.037.112.075,0,.075-.187.375-.187.562,0,.225,1.049,4.869,1.086,5.056a3.184,3.184,0,0,0,.412.786c0,.075-.037.075-.112.075h-1.236c-.075,0-.112,0-.112-.075s.3-.337.3-.487c0-.112-.262-1.161-.262-1.236a.081.081,0,0,0-.075-.075c-.037,0-.075,0-.15.075l-1.348.824c-.075.037-.112.075-.112.15v.15c0,.262.3.6.3.637,0,.075-.037.075-.112.075h-1.311a.081.081,0,0,1-.075-.075c0-.075.3-.375.375-.637S464,148.524,464,148.337a4.9,4.9,0,0,0-.187-.562c0-.075.037-.075.112-.075h1.461Zm-.712,1.461a.073.073,0,0,0-.075-.075c-.037,0-.037.075-.037.075l-.6,3.034c0,.037,0,.037.038.037h.037c.225-.15.861-.524,1.049-.674.037-.037.037-.037.037-.075v-.075Z" transform="translate(-439.841 -147.7)"/>
      <path id="Tracé_107" data-name="Tracé 107" d="M478.573,153.705a.171.171,0,0,0,.15-.187v-.562a.358.358,0,0,1,.075-.262,4.144,4.144,0,0,1,.6-.412.1.1,0,0,1,.112.112v1.76c0,.15-.075.262-.225.262h-2.509a.081.081,0,0,1-.075-.075c0-.112.337-.375.337-.6v-5.168c0-.262-.337-.487-.337-.6,0-.075.037-.075.075-.075h1.273a.081.081,0,0,1,.075.075c0,.112-.337.375-.337.6v4.981c0,.112.037.187.15.187h.637Z" transform="translate(-448.723 -147.825)"/>
      <path id="Tracé_108" data-name="Tracé 108" d="M488.024,149.748a.477.477,0,0,0,.187.412l1.311,1.049a.756.756,0,0,1,.337.674v1.91a.524.524,0,0,1-.6.562h-1.386a.623.623,0,0,1-.637-.6v-1.648a.1.1,0,0,1,.112-.112,4.145,4.145,0,0,1,.6.412.358.358,0,0,1,.075.262v.824a.171.171,0,0,0,.15.187h.749c.112,0,.15-.075.15-.187v-1.236a.477.477,0,0,0-.187-.412l-1.311-1.049a.772.772,0,0,1-.375-.637v-1.8a.524.524,0,0,1,.6-.562h1.386a.623.623,0,0,1,.637.6v1.386a.1.1,0,0,1-.112.112,4.145,4.145,0,0,1-.6-.412.358.358,0,0,1-.075-.262v-.562a.171.171,0,0,0-.15-.187h-.749c-.112,0-.15.075-.15.187v1.086Z" transform="translate(-455.29 -147.763)"/>
    </g>
    <path id="Tracé_109" data-name="Tracé 109" d="M5.359,63.314a12.753,12.753,0,0,0,3.558,3.933,25.687,25.687,0,0,0,7.9,3.633c2.509.712,5.094,1.124,7.6,1.723a27.861,27.861,0,0,0,5.58.487c.112,0,.187.037.3.037a34.489,34.489,0,0,0,5.843-.075,11.975,11.975,0,0,0,5.019-2.622,10.371,10.371,0,0,0,3.483-7.041c.187-1.573.262-3.183.3-4.756.075-5.281.075-10.562.112-15.843a1.283,1.283,0,0,0-.15-.674c-1.086-1.236-2.21-2.434-3.371-3.633a.739.739,0,0,0-.861-.112c-.787.524-1.461,1.161-2.247,1.648-.861.524-1.835.936-2.734,1.423-.112-.225-.15-.262-.15-.3-.075-3.446-.337-6.891.3-10.262a11.112,11.112,0,0,1,3.371-6.629,5.594,5.594,0,0,1,2.21-1.311s1.536-.375,1.573-.9c-1.124.15-2.21.562-3.333.824a11.187,11.187,0,0,0-7.341,5.58.881.881,0,0,1-1.236.337c-.187-.112-.412-.225-.6-.337a10.151,10.151,0,0,0,1.5-2.809,11.521,11.521,0,0,0-.861-9.513,35.68,35.68,0,0,0-3.034-4.157.684.684,0,0,0-.712-.075c-.674.375-1.311.861-1.985,1.2A39.706,39.706,0,0,1,20.9,15.037a29.369,29.369,0,0,1-6.067,1.723,15.125,15.125,0,0,1-8.127-.9,3.678,3.678,0,0,0-.787-.075c.225.3.3.449.412.562,1.2,1.011,2.4,1.985,3.6,3,.15.15.3.6.225.637-.749.637-1.573,1.161-2.36,1.8-1.236.974-2.509,1.948-3.67,3a3.8,3.8,0,0,0-1.236,2.659c-.037,1.948-.037,3.97-.075,5.992L2.7,52.639a32.5,32.5,0,0,0,.712,6.891A16.454,16.454,0,0,0,5.359,63.314ZM12.213,44.55c.037-5.468.15-10.9.075-16.367a17.616,17.616,0,0,1,1.648-7.828,3.579,3.579,0,0,1,2.1-2.135c1.723-.524,3.483-.936,5.206-1.5a2.182,2.182,0,0,1,1.685.112,7.28,7.28,0,0,1,3.708,3.221,7.513,7.513,0,0,1,.824,4.382,13.89,13.89,0,0,1-1.273,4.12,25.948,25.948,0,0,1-4.12,6.142,3.05,3.05,0,0,0-.487,1.049,3.607,3.607,0,0,0,.936-.337c1.61-1.161,3.258-2.247,4.794-3.521a23.218,23.218,0,0,0,2.584-2.809c.037-.037.037-.075.075-.075a2.747,2.747,0,0,1,.562,1.086,17.208,17.208,0,0,1,.6,3.9c.037,5.768-.037,11.5-.075,17.266a5.468,5.468,0,0,1-.449,2.022,4.809,4.809,0,0,1-3.071,2.509c.037.375,0-.075.037.3a13.363,13.363,0,0,1,7.678,3.371c.037-.412.075-.712.075-1.011.037-4.756.112-9.476.112-14.232a1.126,1.126,0,0,1,1.011-1.273,2.936,2.936,0,0,0,.524-.187,8.293,8.293,0,0,1,1.8-.562c.6-.037,2.022,1.685,1.985,2.322-.075,1.5-.225,3-.3,4.494-.187,4.682.337,9.363-.337,14.045a30.222,30.222,0,0,1-.974,4.794,6.7,6.7,0,0,1-4.794,4.944,2.036,2.036,0,0,1-.674,0c-1.461-.337-3-.562-4.419-.974-1.648-.487-3.221-1.124-4.831-1.723a18.033,18.033,0,0,1-6.03-3.633c-2.21-1.985-4.307-4.157-5.243-7.153a17.036,17.036,0,0,1-.974-3.783C12.1,51.853,12.176,48.22,12.213,44.55Z" transform="translate(114.367 73.641)"/>
    <path id="Tracé_110" data-name="Tracé 110" d="M248.087,96.484c.674,2.509,1.461,3.221,3.558,4.869,2.06,1.835,7.828-3,7.828-3s2.172-2.7-1.124-.412c-3.258,2.285-5.168,0-5.168,0a3.475,3.475,0,0,1-.637-1.985c-.112-1.124-.112-1.386,1.086-1.985.637-.3,1.348-.487,2.022-.786,1.423-.637,2.809-1.348,4.195-1.985a1.153,1.153,0,0,0,.786-1.161c0-2.36.037-4.719.037-7.041a1.29,1.29,0,0,0-.375-.861c-.936-.936-1.91-1.8-2.846-2.734-.487-.487-.861-.449-1.386-.037a16.623,16.623,0,0,1-4.794,2.472,12.161,12.161,0,0,1-3.071.674c-.749.037-.9.3-.9.936.075,3.408.112,6.816.225,10.225A26.614,26.614,0,0,0,248.087,96.484Zm3.558-13.146c-.037-.449.037-.824.674-.861.15,0,.262-.112.412-.15,1.536-.412,1.573-.524,2.472.712a.037.037,0,0,0,.037.037c1.236.674,1.161,1.723,1.124,2.772a31.357,31.357,0,0,0,0,4.195c.112,1.161-.6,1.685-1.573,2.172-.674.337-1.311.674-1.948,1.011-.375.187-.712.3-.824-.187a6.576,6.576,0,0,1-.225-1.461c-.075-.9-.075-1.8-.075-2.7.075,0-.112-1.648,0-1.685-.037-.974-.112-1.273-.15-2.247C251.495,84.087,251.719,84.237,251.645,83.338Z" transform="translate(-38.623 31.594)"/>
    <path id="Tracé_111" data-name="Tracé 111" d="M379.75,79.306c-.487-.487-.861-.449-1.386-.037a16.621,16.621,0,0,1-4.794,2.472,12.16,12.16,0,0,1-3.071.674c-.749.037-.9.3-.9.936.075,3.408.112,6.816.225,10.225a12.678,12.678,0,0,0,.524,2.846c.674,2.509,1.461,3.221,3.558,4.869,2.06,1.835,7.828-3,7.828-3s2.172-2.7-1.124-.412c-3.258,2.285-5.168,0-5.168,0a3.476,3.476,0,0,1-.637-1.985c-.112-1.124-.112-1.386,1.086-1.985.637-.3,1.348-.487,2.022-.787,1.423-.637,2.809-1.348,4.195-1.985a1.153,1.153,0,0,0,.787-1.161c0-2.36.037-4.719.037-7.041a1.29,1.29,0,0,0-.375-.861C381.66,81.1,380.686,80.242,379.75,79.306ZM378.7,85.785a31.352,31.352,0,0,0,0,4.195c.112,1.161-.6,1.685-1.573,2.172-.674.337-1.311.674-1.948,1.011-.375.187-.712.3-.824-.187a6.577,6.577,0,0,1-.225-1.461c-.075-.9-.075-1.8-.075-2.7.075,0-.112-1.648,0-1.685-.037-.974-.112-1.273-.15-2.247-.037-.861.187-.749.075-1.61-.037-.449.037-.824.674-.861.15,0,.262-.112.412-.15,1.536-.412,1.573-.524,2.472.712a.037.037,0,0,0,.037.037C378.813,83.688,378.738,84.736,378.7,85.785Z" transform="translate(-115.119 31.656)"/>
    <path id="Tracé_112" data-name="Tracé 112" d="M202.173,107.458a9.617,9.617,0,0,1-.637,3.97,21.071,21.071,0,0,1-1.236,2.022,10.245,10.245,0,0,0,1.985-.562c.6-.3.824-.075,1.086.375a10.6,10.6,0,0,0,1.348,2.172,25.983,25.983,0,0,0,2.7,2.247c1.5,1.124,3.3,1.348,5.131,1.648a.568.568,0,0,0-.337-.375,6.153,6.153,0,0,1-3.9-3.183,15.674,15.674,0,0,1-1.8-5.468,21.993,21.993,0,0,1-.3-2.7c-.037-1.236,0-2.472.037-3.708,0-1.161.037-2.36.075-3.67a6.922,6.922,0,0,1,1.423.487c1.423.861,2.846,1.8,4.27,2.7a.982.982,0,0,0,.861-.037c.749-.749,1.461-1.573,2.172-2.36a3.508,3.508,0,0,0,1.2-2.547c-.037-3.67,0-7.3.075-10.974a3.474,3.474,0,0,0-1.124-3.034,35.145,35.145,0,0,1-2.959-3.258h-.075c-.6.487-1.124.936-1.685,1.348-1.124.824-2.247,1.61-3.371,2.4a.777.777,0,0,1-1.273-.487,6.2,6.2,0,0,0-2.06-3,3.365,3.365,0,0,0-3.109-.637,6.376,6.376,0,0,1,1.536,4.345C202.285,92.589,202.21,100,202.173,107.458Zm4.195-20.224c0-.449,0-.824.6-.936.562-.112,1.124-.375,1.685-.524.487-.15,1.049-.749,1.536-.225.787.824,1.91,1.348,1.873,2.846-.112,3.071-.075,6.142-.112,9.213a1.209,1.209,0,0,1-.3.786c-.936,1.161-1.8,2.1-3.633,1.273-1.985-.861-1.61-.3-1.685-2.36-.037-.749-.037-1.461-.037-2.21.112,0-.112-2.4,0-2.4C206.18,90.117,206.4,89.855,206.367,87.234Z" transform="translate(-9.226 30.582)"/>
    <path id="Tracé_113" data-name="Tracé 113" d="M159.422,85.579q0,10.506-.112,21.011c-.037,2.322-.112,4.682-1.91,6.592l2.659-.749c.037,0,.037,0,.037.037,1.685,4.232,5.243,5.918,9.588,6.479-.187-.075-.375-.187-.562-.262a13.192,13.192,0,0,1-2.772-1.835,9.538,9.538,0,0,1-1.835-3.371,21.68,21.68,0,0,1-1.086-5.094c-.187-2.322-.037-4.644,0-7,0-.449.075-.861.112-1.386a14.689,14.689,0,0,1,5.168,2.959c.562.562.936.487,1.386-.037.936-1.049,1.91-2.022,2.771-3.109a3.32,3.32,0,0,0,.562-1.573c.075-3.745.075-7.453.112-11.2,0-.487.075-1.161-.187-1.5-1.161-1.5-2.472-2.959-3.745-4.382a.567.567,0,0,0-.712-.075c-.749.562-1.386,1.236-2.135,1.8-.9.674-1.8,1.311-2.771,1.91-.487.3-.787,0-.974-.449-.225-.562-.449-1.124-.712-1.685-.637-1.348-2.846-2.846-4.644-2.21a6.01,6.01,0,0,1,1.161,1.648A13.862,13.862,0,0,1,159.422,85.579Zm4.045,5.805c0-1.5.037-2.959.037-4.457,0-.487.112-.787.637-.936.824-.225,1.573-.637,2.4-.861a.925.925,0,0,1,.824.187,10.221,10.221,0,0,1,1.423,1.423,1.452,1.452,0,0,1,.337.861c.037,1.536-.15,2.434-.112,3.97-.112,0,.037.637-.075.637.037,1.536.112,3.034.075,4.569a3.075,3.075,0,0,1-.562,1.423,11.487,11.487,0,0,1-1.049,1.311.826.826,0,0,1-1.124.262c-.712-.3-1.5-.375-2.21-.674a1.151,1.151,0,0,1-.637-.861C163.43,95.953,163.467,93.669,163.467,91.384Z" transform="translate(17.607 30.814)"/>
    <path id="Tracé_114" data-name="Tracé 114" d="M124.531,101.449a.9.9,0,0,0,1.311,0A33.8,33.8,0,0,1,133,96.205a1.2,1.2,0,0,0,.6-.974c0-1.8-.075-3.558-.112-5.318.112,0-.15-.337-.037-.337-.037-1.723.3-3.146.225-4.869a1.415,1.415,0,0,0-.449-1.011c-1.835-1.273-3.708-2.472-5.618-3.67a.791.791,0,0,0-.9.075c-1.648,1.423-3.221,2.846-4.869,4.307-.262.225-.562.412-.824.637-.6.637-1.573.9-1.573,2.06,0,3.333-.037,6.667-.037,10a1.51,1.51,0,0,0,.524,1.086Zm-.262-16.779a3.462,3.462,0,0,0,.375-.187c1.311-.712,1.311-.712,2.472.3a1.68,1.68,0,0,0,.487.412c1.386.562,1.648,1.648,1.536,3a26.981,26.981,0,0,0-.15,3.034c-.075,0,.037.3-.037.3.037,1.5.037,3,.112,4.494a1.17,1.17,0,0,1-.6,1.124c-.3.187-.562.449-.861.637a1.033,1.033,0,0,1-1.086-.075c-.637-.524-1.236-1.124-1.873-1.61a2.424,2.424,0,0,1-.9-2.285c.075-1.461.075-2.921.037-4.382-.037-1.2-.15-2.36-.225-3.558A.968.968,0,0,1,124.269,84.67Z" transform="translate(41.375 31.049)"/>
    <path id="Tracé_115" data-name="Tracé 115" d="M287.814,84.881a2.676,2.676,0,0,1,.562,1.348c.037,3.745,0,7.491,0,11.236,0,.674-.075,1.236-.786,1.5-.225.075-.375.412-.637.787,1.311.749,2.472,1.461,3.708,2.1a1.016,1.016,0,0,0,.861-.112c.936-.6,1.8-1.273,2.7-1.91.449-.337.412-.787-.075-1.011-1.124-.487-1.8-1.2-1.461-2.547v-.15c.037-3.521.037-7.041.112-10.562a1.044,1.044,0,0,1,.412-.824c.974-.487,1.873-.974,2.959,0,1.2,1.049,1.948,2.434.337,3.633a18.3,18.3,0,0,0-1.536,1.386.726.726,0,0,0,.674.037c.824-.375,1.61-.861,2.4-1.236,1.985-.861,2.659-4.27,1.61-5.88a17.113,17.113,0,0,0-2.322-2.622.723.723,0,0,0-.674.037c-1.386.974-2.734,1.985-4.12,2.959a.63.63,0,0,1-.787-.112c-.749-.936-1.386-1.91-2.135-2.846-.187-.225-.787-.449-.9-.337a22.737,22.737,0,0,0-2.434,2.21.953.953,0,0,0-.037.9C286.728,83.57,287.327,84.17,287.814,84.881Z" transform="translate(-62.92 31.175)"/>
    <path id="Tracé_116" data-name="Tracé 116" d="M424.672,83.694a5.371,5.371,0,0,1-1.835-.637,17.98,17.98,0,0,1-1.948-1.124,13.366,13.366,0,0,1-1.61-1.348c-.187-.187-.412-.375-.6-.562a1.6,1.6,0,0,0-1.835-.3c-1.311.637-2.584,1.348-3.9,2.1-1.61.974-2.434,1.985-2.434,3.034a3.764,3.764,0,0,0,.449,1.8,5.37,5.37,0,0,0,1.61,1.8,1.058,1.058,0,0,0-.412.262,1.4,1.4,0,0,1-.712.337c-.3.075-.637.15-.974.225a4.514,4.514,0,0,0-.712,0c-1.236.187-.375,2.135-.375,2.135a9.387,9.387,0,0,1,.225,1.723v3.333a3.349,3.349,0,0,1-.412,1.948s-1.049,1.011.449,1.273a1.934,1.934,0,0,1,.974.637,4.1,4.1,0,0,1,.787.824s.712,1.273,2.622-.787a3.218,3.218,0,0,1,2.285-.787,4.786,4.786,0,0,1,2.734.824,13.909,13.909,0,0,1,1.2.861,1.591,1.591,0,0,0,2.06-.075l2.1-1.723c-.487-.337-.786-1.011-1.236-1.461a2.961,2.961,0,0,1-.375-2.022V87.364c0-1.049.15-1.91.674-2.247C424.56,84.406,425.533,83.731,424.672,83.694Zm-6.779,13.67a1.286,1.286,0,0,1-.637.974c-.412.3-.749.524-.936.637a4.518,4.518,0,0,0-1.161-.562,5.174,5.174,0,0,1-1.461-.861V88.975a8.086,8.086,0,0,1,1.086.112,9.4,9.4,0,0,0,1.124.15,4.4,4.4,0,0,0,1.086-.187,6.162,6.162,0,0,1,.824-.187v8.5Zm0-9.288a7.618,7.618,0,0,1-1.086.412,4.887,4.887,0,0,1-.861.075,7.53,7.53,0,0,1-3.071-.637,2.49,2.49,0,0,1-1.536-2.547,2.461,2.461,0,0,1,1.124-1.985,3.482,3.482,0,0,1,2.1-.824,2.787,2.787,0,0,1,1.835.936,5.3,5.3,0,0,1,1.236,1.536,5.1,5.1,0,0,1,.3,1.2c.037.412.037.787.037,1.124v.712Z" transform="translate(-139.667 31.276)"/>
    <path id="Tracé_117" data-name="Tracé 117" d="M191.552,35.4c-.674-.3-.562.037-.412.262.15.187,1.5,1.5.936,2.509a3.861,3.861,0,0,1-3.558,1.948c-1.685-.112-3.446-.449-3.558-.449-1.985-.337-3.97-.749-5.955-1.086-1.423-.225-2.846-.375-4.27-.524-1.648-.187-3.333-.412-4.981-.562-2.509-.225-5.019-.375-7.528-.6a1.037,1.037,0,0,1-.337-.037c-1.461-.187-2.884-.375-4.345-.524-1.311-.112-2.622-.187-3.933-.262-2.434-.112-4.869-.3-7.3-.3-2.322,0-4.644.15-7,.3-1.76.112-3.521.225-5.243.487-1.124.15-2.21.562-3.333.824a11.093,11.093,0,0,0-7.3,5.543.853.853,0,0,1-1.236.337c-.487-.3-.974-.6-1.536-.3a6.888,6.888,0,0,1,1.011,1.723,17.208,17.208,0,0,1,.6,3.9c.037,5.768-.037,11.5-.075,17.266a5.468,5.468,0,0,1-.449,2.022,4.809,4.809,0,0,1-3.071,2.509c.037.412,0-.112.037.3a13.363,13.363,0,0,1,7.678,3.371c.037-.412.075-.712.075-1.011.037-4.757.112-9.476.112-14.232a1.126,1.126,0,0,1,1.011-1.273c.187-.037.337-.15.524-.187a8.294,8.294,0,0,1,1.8-.562c.6-.037,2.022,1.685,1.985,2.322-.075,1.5-.225,3-.3,4.494-.187,4.607.112,8.989-.187,13.745-.3,4.569-1.086,9.513-1.086,9.513A36.244,36.244,0,0,1,122.826,89l-8.839,1.573c-1.91.375-8.315,1.311-10.524,1.536-11.91,1.2-14.344,1.536-33.67,2.21H62.977c-33.633.112-44.456-.674-57.79-5.955a16.922,16.922,0,0,1-3.97-2.21C-.73,84.578-.094,85.439.131,85.7c.262.3.15.187,1.461,1.161,9.138,6.816,30.636,10.711,62.621,10.711,0,0,33.408,0,55.28-3.745,0,0,2.809-.337,5.805-.936a39.177,39.177,0,0,0,5.955-1.536,12.765,12.765,0,0,0,2.172,3.071s4.307,4.382,11.5,1.423c2.509-1.049,3.783-3.558,3.933-6.667s-1.2-4.494-2.022-5.094a8.088,8.088,0,0,0-4.644-1.161,16.9,16.9,0,0,0-7.341,2.172c0-.15.637-3.783.974-7.79h0a37.451,37.451,0,0,0,.225-4.12c.075-5.281.075-10.562.112-15.843a1.283,1.283,0,0,0-.15-.674c-1.086-1.236-2.21-2.434-3.371-3.633a.739.739,0,0,0-.9-.112c-.786.524-1.461,1.161-2.247,1.648-.861.524-1.835.936-2.734,1.423-.112-.225-.15-.262-.15-.3-.075-3.446-.337-6.891.3-10.262a10.359,10.359,0,0,1,3.558-6.142,5.594,5.594,0,0,1,2.21-1.311,17.981,17.981,0,0,1,3.483-.3,119.1,119.1,0,0,1,12.135-.187c1.948.037,3.9.187,5.843.3,1.273.075,2.509.187,3.745.3.786.075,1.536.187,2.285.3,1.685.262,3.371.562,5.019.824,1.236.187,2.472.337,3.708.524.674.112,1.348.225,2.06.337.112.037.225.037.3.075a10.638,10.638,0,0,1,6.142,5.805,17.008,17.008,0,0,1,1.5,5.094c.15,1.536.112,1.91-1.236,2.734-.749.449-1.573.674-2.322,1.049-1.648.9-3.258,1.835-4.869,2.734a1.587,1.587,0,0,0-.9,1.573c0,3.221-.037,6.442-.037,9.663a2.075,2.075,0,0,0,.412,1.161c1.086,1.273,2.247,2.472,3.3,3.708.562.674.974.637,1.573.075a18.825,18.825,0,0,1,6.33-3.67,8.36,8.36,0,0,1,2.659-.637c.974-.037,1.2-.375,1.161-1.273-.112-4.682-.15-9.326-.262-14.007a19.6,19.6,0,0,0-.6-3.9,20.544,20.544,0,0,0-4.682-8.764c1.685.3,3.371.637,5.056.936a17.35,17.35,0,0,0,5.73.449c2.247-.449,3.633-1.348,3.633-3.633A3.923,3.923,0,0,0,191.552,35.4Zm-52.1,52.771c.9-.225,4.345-1.536,4.869.637A3.258,3.258,0,0,1,141.178,93c-2.434.15-4.569-.337-5.431-3.371C135.748,89.634,138.744,88.36,139.455,88.173Zm40.524-31.31c.075,1.236.075,2.472.112,3.708-.075,0,.112.524.037.524.037,1.311-.262,2.135-.225,3.446.075,1.2.187,2.4.262,3.6.037.6-.037,1.124-.786,1.2-.187,0-.337.15-.487.225-1.8.562-1.835.749-2.884-.974,0-.037-.037-.037-.075-.075-1.461-.9-1.348-2.322-1.311-3.783a49.385,49.385,0,0,0,0-5.768c-.15-1.61.674-2.322,1.835-3,.749-.449,1.5-.9,2.247-1.386.449-.262.824-.375.974.262A13.91,13.91,0,0,1,179.979,56.863Z" transform="translate(116.15 58.968)"/>
    <g id="Groupe_46" data-name="Groupe 46" transform="translate(174.707 93.547)">
      <path id="Tracé_118" data-name="Tracé 118" d="M163.437,40.271h2.771c.075,0,.187-.037.262-.037h3.9c.075,0,.187.037.262.037h6.667c.075,0,.187-.037.262-.037a.637.637,0,0,1,.262-.037h3.109c.075,0,.187.037.262.037h.037a.225.225,0,0,1,0,.449h-.112a.138.138,0,0,0-.112.037h-.225a.475.475,0,0,1-.225-.037h-.225c-.15,0-.3-.037-.412-.037-.15-.037-.262-.037-.412-.075a2.849,2.849,0,0,1-.786-.3h-.225a.532.532,0,0,1-.225-.075,1.172,1.172,0,0,1-.375-.187c-.075-.037-.112-.075-.187-.112l-.075-.075c-.037-.037-.075-.037-.075-.075-.112-.075-.262-.15-.375-.225l-.375-.225-.337-.225c-.112-.075-.225-.187-.337-.262a2.059,2.059,0,0,1-.337-.262c-.112-.075-.225-.187-.337-.262l-.3-.3.225.112a1.648,1.648,0,0,0-.375.075.131.131,0,0,0-.075.037l-.112.037a.131.131,0,0,0-.075.037c-.037,0-.037.037-.075.075a.582.582,0,0,0-.225.3.648.648,0,0,0-.037.375c0,.075,0,.15-.075.187l-.075.037a1.629,1.629,0,0,1-.262.15c-.075.037-.187.075-.262.112a4.544,4.544,0,0,1-.524.187,20269.443,20269.443,0,0,1-.524.15c-.187.037-.375.112-.562.15l-.562.112c-.075,0-.187.037-.262.037s-.187.037-.3.037c-.375.037-.749.112-1.124.187l-.15.037c-.037,0-.075.037-.15.037a.637.637,0,0,1-.262.037c-.187.037-.375.037-.562.075a2.835,2.835,0,0,1-.562.037l-.562.037a5.641,5.641,0,0,1-1.124.037h-.6a2.834,2.834,0,0,0-.562.037.207.207,0,1,1-.037-.412h0a2.835,2.835,0,0,0,.562-.037h.262a.637.637,0,0,0,.262-.037,5.716,5.716,0,0,1,1.124-.112c.187,0,.375-.037.562-.037a2.891,2.891,0,0,0,.562-.075l.562-.075c.075,0,.187-.037.262-.037h.3a5.064,5.064,0,0,0,1.086-.187c.187-.037.375-.112.524-.15a2.147,2.147,0,0,0,.524-.15c.187-.037.337-.112.524-.15.075-.037.187-.037.262-.075s.187-.037.262-.075a2.935,2.935,0,0,0,.524-.187.694.694,0,0,1,.262-.075c.075-.037.187-.037.262-.075l-.15.225a3.118,3.118,0,0,1,.15-.562,1.881,1.881,0,0,1,.3-.449c.075-.075.15-.112.187-.187l.112-.112c.037-.037.075-.037.112-.075a1.5,1.5,0,0,1,.562-.112h0a.206.206,0,0,1,.187.112c.075.112.187.187.262.3s.187.187.262.3a2.259,2.259,0,0,0,.3.3,2.142,2.142,0,0,1,.3.262l.337.225.375.187c.112.075.225.112.337.187.037,0,.075.037.112.037h.112c.075,0,.112.037.187.075.112.037.262.112.375.15a1.519,1.519,0,0,1,.337.187c.037,0,.075.037.112.037h.112c.075,0,.112.037.187.037a1.33,1.33,0,0,0,.375.075c.112.037.262.037.375.075l.375.075.187.037h.187a.281.281,0,0,1,.187.037c.037,0,.075.037.112.037h.112v.449c-.075,0-.187.037-.262.037h-3.109a.637.637,0,0,1-.262-.037.638.638,0,0,0-.262-.037h-6.667c-.075,0-.187.037-.262.037h-3.9c-.075,0-.187-.037-.262-.037h-2.771a.21.21,0,0,1-.225-.187.518.518,0,0,1,.337-.187Z" transform="translate(-160.666 -35.964)"/>
      <path id="Tracé_119" data-name="Tracé 119" d="M244.365,40.683h-2.771c-.075,0-.187.037-.262.037h-3.9c-.075,0-.187-.037-.262-.037h-6.667c-.075,0-.187.037-.262.037a.637.637,0,0,1-.262.037h-3.109c-.075,0-.187-.037-.262-.037v-.449h.112c.037,0,.075-.037.112-.037a1.623,1.623,0,0,0,.187-.037h.187l.187-.037.375-.075c.112-.037.262-.037.375-.075a1.331,1.331,0,0,1,.375-.075c.075,0,.112-.037.187-.037h.112a.138.138,0,0,0,.112-.037,1.518,1.518,0,0,1,.337-.187c.112-.037.262-.112.375-.15.075-.037.112-.037.187-.075h.112c.037,0,.075-.037.112-.037.112-.075.225-.112.337-.187l.337-.225.337-.225a1.01,1.01,0,0,0,.3-.262,2.261,2.261,0,0,0,.3-.3c.075-.112.187-.187.262-.3s.187-.187.262-.3c.037-.075.112-.075.187-.112h0a1.5,1.5,0,0,1,.562.112c.037.037.075.037.112.075l.112.112c.075.075.15.112.187.187a3.124,3.124,0,0,1,.3.449,2.027,2.027,0,0,1,.15.562l-.15-.225c.075.037.187.037.262.075a.694.694,0,0,0,.262.075c.187.075.337.112.524.187a.694.694,0,0,0,.262.075c.075.037.187.037.262.075.187.037.337.112.524.15a40537.027,40537.027,0,0,1,1.049.3,5.064,5.064,0,0,0,1.086.187h.3c.075,0,.187.037.262.037l.562.075c.187.037.375.037.562.075.187,0,.375.037.562.037.375.037.749.037,1.124.112.075,0,.187.037.262.037h.262a2.835,2.835,0,0,1,.562.037.207.207,0,1,1-.037.412h0a2.835,2.835,0,0,1-.562-.037h-.6a5.641,5.641,0,0,1-1.124-.037l-.562-.037c-.187,0-.375-.037-.562-.037-.187-.037-.375-.037-.562-.075-.075,0-.187-.037-.262-.037-.037,0-.075-.037-.15-.037l-.15-.037c-.375-.075-.749-.15-1.124-.187a.825.825,0,0,1-.3-.037c-.075,0-.187-.037-.262-.037l-.562-.112a3.119,3.119,0,0,1-.562-.15c-.075-.037-.187-.037-.262-.075a.7.7,0,0,0-.262-.075c-.187-.075-.375-.112-.524-.187-.075-.037-.187-.075-.262-.112a1.628,1.628,0,0,0-.262-.15l-.075-.037c-.075-.037-.075-.112-.075-.187a.647.647,0,0,0-.037-.375.9.9,0,0,0-.225-.3l-.075-.075a.131.131,0,0,1-.075-.037l-.112-.037c-.037,0-.075,0-.075-.037a1.108,1.108,0,0,0-.375-.075l.225-.112-.3.3a2.059,2.059,0,0,1-.337.262,2.059,2.059,0,0,0-.337.262c-.112.075-.225.187-.337.262l-.337.225-.375.225c-.112.075-.262.15-.375.225a.081.081,0,0,0-.075.075l-.075.075c-.075.037-.112.075-.187.112-.112.075-.262.112-.375.187-.075.037-.15.037-.225.075h-.225a3.385,3.385,0,0,1-.787.3,1.593,1.593,0,0,1-.412.075,1.68,1.68,0,0,1-.412.037H227.1c-.075,0-.15.037-.225.037h-.225a.138.138,0,0,1-.112-.037h-.112a.207.207,0,0,1-.037-.412h.037c.075,0,.187-.037.262-.037H229.8a.637.637,0,0,1,.262.037.637.637,0,0,0,.262.037h6.667c.075,0,.187-.037.262-.037h3.9c.075,0,.187.037.262.037h2.771a.21.21,0,0,1,.225.187c.187.075.112.15-.037.187Z" transform="translate(-200.133 -35.964)"/>
      <path id="Tracé_120" data-name="Tracé 120" d="M208.11,40.849a1.037,1.037,0,0,1-.337-.037c-.075,0-.112-.037-.187-.037-.037-.037-.112-.037-.15-.075a2.1,2.1,0,0,1-.562-.375l-.112-.112c-.037-.037-.075-.112-.112-.15a1827.113,1827.113,0,0,1-.15-.3c0-.037-.037-.037-.037-.075s-.037-.037-.037-.075c-.037-.037-.037-.112-.075-.15l-.112-.337a1.155,1.155,0,0,1-.037-.375,1.33,1.33,0,0,1,.075-.375.884.884,0,0,1,.225-.337.52.52,0,0,1,.375-.187.766.766,0,0,1,.412,0,.5.5,0,0,1,.187.112c.075.037.112.112.15.15a1.247,1.247,0,0,1,.112.225.32.32,0,0,1,0,.262.138.138,0,0,1-.037.112c0,.037-.037.075-.075.112a.993.993,0,0,1-.225.187.281.281,0,0,1-.337-.15.236.236,0,0,1,.112-.3l.037-.037h0v-.075c0-.037,0-.037-.037-.075a.517.517,0,0,0-.15-.112.17.17,0,0,0-.187,0,.58.58,0,0,0-.3.3.554.554,0,0,0,0,.487,1.161,1.161,0,0,0,.225.487c.075.075.112.15.187.187.037.037.075.037.112.075s.075.075.112.075a3.125,3.125,0,0,0,.449.3.138.138,0,0,0,.112.037c.037,0,.037.037.075.037l.075.037c.037.037.075.037.112.075s.075.037.112.075h.037a.2.2,0,0,1,.075.3C208.26,40.812,208.185,40.849,208.11,40.849Z" transform="translate(-187.623 -36.168)"/>
      <path id="Tracé_121" data-name="Tracé 121" d="M226.887,40.437c.037-.037.075-.037.112-.075s.075-.037.112-.075l.075-.037c.037,0,.037-.037.075-.037s.075-.037.112-.037a3.124,3.124,0,0,0,.449-.3c.037-.037.075-.075.112-.075.037-.037.075-.037.112-.075.075-.075.15-.112.187-.187a1.419,1.419,0,0,0,.225-.487,1.066,1.066,0,0,0,0-.487.58.58,0,0,0-.3-.3h-.187c-.075.037-.112.037-.15.112,0,.037-.037.037-.037.075v.075h0l.037.037a.257.257,0,0,1,.112.337.251.251,0,0,1-.3.112.384.384,0,0,1-.225-.187c-.037-.037-.037-.075-.075-.112,0-.037-.037-.075-.037-.112V38.34l.112-.225c.037-.075.112-.112.15-.15.075-.037.112-.075.187-.112a.766.766,0,0,1,.412,0,1.172,1.172,0,0,1,.375.187.674.674,0,0,1,.225.337,1.33,1.33,0,0,1,.075.375,1.274,1.274,0,0,1-.037.375l-.112.337c-.037.037-.037.112-.075.15,0,.037-.037.037-.037.075s-.037.037-.037.075a1027.782,1027.782,0,0,1-.15.3c-.037.037-.037.112-.112.15l-.112.112a2.445,2.445,0,0,1-.562.375c-.037.037-.112.037-.15.075a.281.281,0,0,1-.187.037,1.037,1.037,0,0,1-.337.037.242.242,0,0,1-.225-.225c.075-.075.112-.15.187-.187Z" transform="translate(-200.446 -36.168)"/>
      <path id="Tracé_122" data-name="Tracé 122" d="M218.086,44.873a.787.787,0,0,1,0-1.573.817.817,0,0,1,.787.787A.791.791,0,0,1,218.086,44.873Zm0-1.161a.375.375,0,1,0,.375.375A.375.375,0,0,0,218.086,43.712Z" transform="translate(-194.566 -39.592)"/>
      <g id="Groupe_44" data-name="Groupe 44" transform="translate(0 7.715)">
        <path id="Tracé_123" data-name="Tracé 123" d="M156.6,59.556c0-.075.3-.3.3-.487V54.762c0-.225-.3-.412-.3-.487a.081.081,0,0,1,.075-.075h2.172c.449,0,.674.187.674.6v1.91a.567.567,0,0,1-.262.412l-1.536,1.011c-.075.037-.075.112-.075.187v.749c0,.225.3.412.3.487a.081.081,0,0,1-.075.075h-1.2C156.6,59.593,156.6,59.593,156.6,59.556Zm1.011-4.644v2.322a.131.131,0,0,0,.037.075c.037,0,.075-.037.112-.075l.749-.487c.15-.112.225-.187.225-.337V54.949a.2.2,0,0,0-.225-.225h-.786A.318.318,0,0,0,157.611,54.912Z" transform="translate(-156.6 -54.125)"/>
        <path id="Tracé_124" data-name="Tracé 124" d="M166.734,54.075c.075,0,.112.037.112.075,0,.075-.187.337-.187.449,0,.187.974,4.007,1.011,4.157.112.375.375.562.375.637s-.037.075-.112.075h-1.124c-.075,0-.112,0-.112-.075s.262-.3.262-.375a10.723,10.723,0,0,0-.262-1.049.081.081,0,0,0-.075-.075.283.283,0,0,0-.15.037l-1.236.674q-.112.056-.112.112v.112c0,.225.262.487.262.524s-.037.075-.112.075h-1.2a.081.081,0,0,1-.075-.075c0-.075.3-.3.337-.524.075-.225,1.049-4.157,1.049-4.307s-.187-.412-.187-.449.037-.075.112-.075h1.423Zm-.637,1.2s0-.037-.075-.037a.037.037,0,0,0-.037.037l-.562,2.509c0,.037,0,.037.037.037h.037c.187-.112.824-.449.974-.562.037-.037.037-.037.037-.075v-.075Z" transform="translate(-161.229 -54)"/>
        <path id="Tracé_125" data-name="Tracé 125" d="M176.5,59.556c0-.075.3-.3.3-.487V54.762c0-.225-.3-.412-.3-.487a.081.081,0,0,1,.075-.075h2.247c.449,0,.674.187.674.6v1.76a.52.52,0,0,1-.187.375l-.487.337a15.967,15.967,0,0,0,.712,1.91c.15.262.337.3.337.412a.081.081,0,0,1-.075.075h-1.161a.081.081,0,0,1-.075-.075c0-.075.15-.15.15-.262a.283.283,0,0,0-.037-.15c-.112-.337-.337-.936-.524-1.5l-.449.3c-.075.037-.075.112-.075.187v.9c0,.225.3.412.3.487a.081.081,0,0,1-.075.075h-1.2C176.537,59.593,176.5,59.593,176.5,59.556Zm1.049-4.644v2.21a.131.131,0,0,0,.037.075.377.377,0,0,0,.112-.037l.824-.524c.15-.112.225-.187.225-.337V55.024a.2.2,0,0,0-.225-.225h-.861C177.624,54.762,177.549,54.837,177.549,54.912Z" transform="translate(-169.047 -54.125)"/>
        <path id="Tracé_126" data-name="Tracé 126" d="M188.149,59.031c0,.225.3.412.3.487a.081.081,0,0,1-.075.075h-1.2a.081.081,0,0,1-.075-.075c0-.075.3-.3.3-.487v-4.27c0-.225-.3-.412-.3-.487a.081.081,0,0,1,.075-.075h1.2a.081.081,0,0,1,.075.075c0,.075-.3.3-.3.487Z" transform="translate(-175.677 -54.125)"/>
        <path id="Tracé_127" data-name="Tracé 127" d="M193.512,55.81a.359.359,0,0,0,.187.337l1.2.861a.581.581,0,0,1,.337.562v1.573c0,.3-.225.449-.562.449H193.4a.554.554,0,0,1-.6-.487V57.721a.1.1,0,0,1,.112-.112,3.7,3.7,0,0,1,.562.337c.037.037.075.075.075.225v.674a.161.161,0,0,0,.15.15h.712c.112,0,.15-.037.15-.15V57.87a.4.4,0,0,0-.187-.337l-1.2-.861c-.225-.15-.337-.262-.337-.524v-1.5c0-.3.225-.449.562-.449h1.273a.554.554,0,0,1,.6.487v1.161a.1.1,0,0,1-.112.112,3.7,3.7,0,0,1-.562-.337c-.037-.037-.075-.075-.075-.225v-.487a.161.161,0,0,0-.15-.15h-.712c-.112,0-.15.037-.15.15Z" transform="translate(-179.242 -54.125)"/>
        <path id="Tracé_128" data-name="Tracé 128" d="M204.509,55.036h-.524L203.573,55a1.405,1.405,0,0,1-.375-.037c-.15,0-.225-.037-.3-.037a4.513,4.513,0,0,1-.861-.15,1.473,1.473,0,0,1-.225-.075.131.131,0,0,1-.075-.037.037.037,0,0,0-.037-.037V54.1h0l.075.037c.075.037.112.037.187.075.15.037.262.075.412.112a2.445,2.445,0,0,0,.412.075c.225.037.449.037.637.075l.449.037h1.236c.3,0,.637,0,1.049-.037.375-.037.674-.037.861-.075a4.513,4.513,0,0,0,.861-.15c.112-.037.262-.075.375-.112.037-.037.037-.037.075,0v.037h0v.449h0c0,.037,0,.037-.037.037s-.037.037-.075.037c-.112.037-.262.075-.412.112a2.8,2.8,0,0,1-.412.075l-.449.075-.487.037-.412.037h-.712A2.979,2.979,0,0,1,204.509,55.036Zm-2.7,3.446h0c-.037,0-.075,0-.075-.037V58.37l.037-.037.075-.112a.818.818,0,0,0,.112-.187c.037-.037.037-.112.075-.225l.075-.3.112-.562.112-.524a3.507,3.507,0,0,0,.15-.6c0-.037.037-.075.037-.15a.138.138,0,0,0-.037-.112.342.342,0,0,1-.112-.187c0-.037,0-.037.037-.037h.3c.075,0,.187.037.3.037l.337.037c.037,0,.075,0,.075.037v.037c0,.037,0,.037-.037.037l-.037.037c-.037.037-.075.075-.075.112v.15c.037.112.037.225.075.3l.112.524.112.562a4.752,4.752,0,0,0,.15.562.283.283,0,0,1,.037.15l.075.112.075.037c.037.037.037.037.037.075s-.037.037-.075.075h-.487l-.337.037h-.15V58.22a.116.116,0,0,1,.037-.075l.075-.075a.29.29,0,0,0,.037-.112h0v-.112l-.037-.112v-.15h-.6l-.037.037c0,.037-.037.15-.037.225v.112a.2.2,0,0,0,.075.15l.037.075a.037.037,0,0,0,.037.037l.037.037v.037c0,.037,0,.037-.037.075h-.112l-.112.037c-.075,0-.112,0-.15.037s-.075,0-.112.037Zm6.554,1.049h0a.116.116,0,0,0-.075-.037l-.187-.075a1.987,1.987,0,0,0-.412-.112,2.8,2.8,0,0,0-.412-.075c-.15-.037-.375-.037-.637-.075-.187,0-.337-.037-.449-.037H205c-.3,0-.637,0-1.049.037-.187,0-.487.037-.861.075a4.512,4.512,0,0,0-.861.15,3.036,3.036,0,0,0-.412.112h-.037c-.037,0-.037,0-.037-.037v-.487c0-.037,0-.037.037-.037.075-.037.075-.037.112-.037a3.039,3.039,0,0,1,.412-.112l.412-.075c.112,0,.225-.037.449-.037a2.687,2.687,0,0,1,.487-.037l.412-.037c.225,0,.449-.037.712-.037h1.423l.412.037c.112,0,.337.037.637.075a3.621,3.621,0,0,1,.861.15c.112.037.187.037.187.075a.131.131,0,0,1,.075.037.037.037,0,0,0,.037.037v.487c-.037.037-.037.037-.037.075Zm-5.73-2.36h.337v-.037a.5.5,0,0,0-.037-.187c-.037-.112-.037-.225-.075-.337,0-.075-.037-.15-.037-.262l-.037-.15v0l-.112.487a1.987,1.987,0,0,1-.112.412v.075h.075Zm3.146,1.049h-.075a.138.138,0,0,1-.112-.037l-.037-.037-.037-.037-.037-.037-.112-.225-.15-.225-.15-.262c-.075-.112-.112-.225-.187-.337l-.112-.187-.037-.075c-.037-.075-.037-.075-.075-.075v1.348c.037.037.037.112.075.15l.037.037.037.037v.037a.131.131,0,0,1-.075.037h-.6c-.037,0-.075,0-.075-.037V58.22l.075-.075c.037-.037.037-.075.075-.15V55.9c-.037-.075-.037-.112-.075-.15a.037.037,0,0,0-.037-.037c-.037,0,0-.037-.037-.037l-.037-.037V55.6c0-.037.037-.037.075-.037h.637l.037.075.037.075.112.187.15.3a1.518,1.518,0,0,0,.187.337,2.29,2.29,0,0,0,.15.225l.075.15h0v-.861c0-.112,0-.225-.037-.262a.517.517,0,0,0-.112-.15L205.3,55.6v-.037h.712l.037.037c0,.037,0,.037-.037.075a.037.037,0,0,1-.037.037.131.131,0,0,0-.037.075.283.283,0,0,0-.037.15V58.22c0,.075,0,.075-.037.112h-.075Zm1.348.075a.475.475,0,0,1-.225-.037h-.412c-.037,0-.037,0-.037-.037v-.075c.037-.037.037-.075.075-.075a.633.633,0,0,0,.075-.187v-2.06a.138.138,0,0,0-.037-.112c0-.037-.037-.037-.075-.075a.037.037,0,0,0-.037-.037l-.037-.037v-.037a.037.037,0,0,1,.037-.037h.562l.262-.037h.3a.94.94,0,0,1,.375.075.812.812,0,0,1,.225.262,1.817,1.817,0,0,1,.187.749v.375a3.027,3.027,0,0,1-.037.6c-.037.15-.037.262-.075.375a.786.786,0,0,1-.487.487h-.337A1.684,1.684,0,0,0,207.131,58.295Zm.262-.449a.138.138,0,0,0,.112-.037c.037-.037.112-.075.15-.15a.532.532,0,0,0,.075-.225c0-.075.037-.15.037-.262V56.8a2.3,2.3,0,0,0-.037-.487c0-.112-.037-.187-.037-.262a.5.5,0,0,0-.112-.187c-.037-.075-.112-.075-.187-.112h-.225l-.037.037v1.948h0v.075l.037.037h.225Z" transform="translate(-184.809 -54.063)"/>
        <path id="Tracé_129" data-name="Tracé 129" d="M222.2,54.762c0-.225-.3-.412-.3-.487a.081.081,0,0,1,.075-.075h2.172c.449,0,.674.187.674.6V56c0,.225-.262.412-.375.487-.037.037-.037.037-.037.075s0,.037.037.075c.112.075.562.337.562.562v1.985c0,.3-.225.449-.562.449h-2.434a.081.081,0,0,1-.075-.075c0-.075.3-.3.3-.487V54.762Zm.712.15V56.6a.081.081,0,0,0,.075.075,6.5,6.5,0,0,0,.824-.562c.15-.112.225-.187.225-.337v-.787a.2.2,0,0,0-.225-.225h-.749A.161.161,0,0,0,222.911,54.912Zm.112,4.12h1.011a.2.2,0,0,0,.225-.225V57.5c0-.075-.037-.112-.112-.15l-.3-.262c-.075-.037-.112-.075-.15-.075a.342.342,0,0,0-.187.112l-.449.337c-.075.075-.112.112-.112.187v1.273C222.911,58.994,222.949,59.031,223.024,59.031Z" transform="translate(-197.443 -54.125)"/>
        <path id="Tracé_130" data-name="Tracé 130" d="M234.685,59.593h-1.423c-.337,0-.562-.15-.562-.449V54.649c0-.3.225-.449.562-.449h1.423a.554.554,0,0,1,.6.487v4.419A.53.53,0,0,1,234.685,59.593Zm-.262-4.831h-.861c-.112,0-.15.037-.15.15v3.933c0,.112.037.15.15.15h.861a.161.161,0,0,0,.15-.15V54.912A.161.161,0,0,0,234.423,54.762Z" transform="translate(-204.198 -54.125)"/>
        <path id="Tracé_131" data-name="Tracé 131" d="M242.912,55.81a.359.359,0,0,0,.187.337l1.2.861a.581.581,0,0,1,.337.562v1.573c0,.3-.225.449-.562.449H242.8a.554.554,0,0,1-.6-.487V57.721a.1.1,0,0,1,.112-.112,3.7,3.7,0,0,1,.562.337c.037.037.075.075.075.225v.674a.161.161,0,0,0,.15.15h.712c.112,0,.15-.037.15-.15V57.87a.4.4,0,0,0-.187-.337l-1.2-.861c-.225-.15-.337-.262-.337-.524v-1.5c0-.3.225-.449.562-.449h1.273a.554.554,0,0,1,.6.487v1.161a.1.1,0,0,1-.112.112,3.7,3.7,0,0,1-.562-.337c-.037-.037-.075-.075-.075-.225v-.487a.161.161,0,0,0-.15-.15h-.712c-.112,0-.15.037-.15.15Z" transform="translate(-210.14 -54.125)"/>
        <path id="Tracé_132" data-name="Tracé 132" d="M252.672,54.275c.225,0,.524-.075.6-.075a.081.081,0,0,1,.075.075v.9a.081.081,0,0,1-.075.075c-.037,0-.112-.075-.262-.262-.112-.15-.3-.15-.6-.15a.12.12,0,0,0-.112.112v4.082c0,.225.3.412.3.487a.081.081,0,0,1-.075.075h-1.2a.081.081,0,0,1-.075-.075c0-.075.3-.3.3-.487V54.949a.1.1,0,0,0-.112-.112c-.3,0-.487,0-.6.15-.187.225-.225.262-.262.262a.081.081,0,0,1-.075-.075v-.9a.081.081,0,0,1,.075-.075c.112,0,.412.075.6.075Z" transform="translate(-215.332 -54.125)"/>
        <path id="Tracé_133" data-name="Tracé 133" d="M262.385,59.593h-1.423c-.337,0-.562-.15-.562-.449V54.649c0-.3.225-.449.562-.449h1.423a.554.554,0,0,1,.6.487v4.419A.554.554,0,0,1,262.385,59.593Zm-.3-4.831h-.861c-.112,0-.15.037-.15.15v3.933c0,.112.037.15.15.15h.861a.161.161,0,0,0,.15-.15V54.912A.161.161,0,0,0,262.085,54.762Z" transform="translate(-221.524 -54.125)"/>
        <path id="Tracé_134" data-name="Tracé 134" d="M272.484,59.593c-.112,0-.15-.075-.225-.225l-1.536-3.183c-.037-.075-.037-.075-.075-.075s-.037.037-.037.075v2.846c0,.225.3.412.3.487a.081.081,0,0,1-.075.075h-1.161a.081.081,0,0,1-.075-.075c0-.075.3-.3.3-.487v-4.27c0-.225-.3-.412-.3-.487a.081.081,0,0,1,.075-.075h.824q.169,0,.225.225L272.3,57.87a.131.131,0,0,0,.037.075.037.037,0,0,0,.037-.037V54.8c0-.225-.3-.412-.3-.487a.081.081,0,0,1,.075-.075h1.161a.081.081,0,0,1,.075.075c0,.075-.3.3-.3.487v4.682a.137.137,0,0,1-.15.15h-.449Z" transform="translate(-227.278 -54.125)"/>
      </g>
      <g id="Groupe_45" data-name="Groupe 45" transform="translate(20.861)">
        <path id="Tracé_135" data-name="Tracé 135" d="M212.6,33.575c.037-.075.037-.075.112-.075h.15a.1.1,0,0,1,.112.112v2.509c0,.112.15.225.15.262s0,.037-.037.037h-.637c-.037,0-.037,0-.037-.037s.15-.15.15-.262v-1.91a.1.1,0,0,0-.112-.112h-.112c-.037,0-.037,0-.037-.037s0-.037.037-.075Z" transform="translate(-212.3 -33.463)"/>
        <path id="Tracé_136" data-name="Tracé 136" d="M217.4,33.575c.037-.075.037-.075.112-.075h.15a.1.1,0,0,1,.112.112v2.509c0,.112.15.225.15.262s0,.037-.037.037h-.637c-.037,0-.037,0-.037-.037s.15-.15.15-.262v-1.91a.1.1,0,0,0-.112-.112h-.112c-.037,0-.037,0-.037-.037s0-.037.037-.075Z" transform="translate(-215.302 -33.463)"/>
        <path id="Tracé_137" data-name="Tracé 137" d="M223.1,35.085h-.6c-.187,0-.3-.075-.3-.262V33.662a.267.267,0,0,1,.3-.262h.787a.332.332,0,0,1,.337.262v2.4a.267.267,0,0,1-.3.262h-.712a.332.332,0,0,1-.337-.262V35.5c0-.037,0-.037.037-.037a2.09,2.09,0,0,1,.3.187c.037.037.037.037.037.112v.187a.081.081,0,0,0,.075.075h.412c.075,0,.075-.037.075-.075V35.2C223.174,35.123,223.174,35.085,223.1,35.085Zm.075-1.236a.081.081,0,0,0-.075-.075h-.449c-.075,0-.075.037-.075.075v.787c0,.075.037.075.075.075h.449a.081.081,0,0,0,.075-.075Z" transform="translate(-218.492 -33.4)"/>
      </g>
    </g>
    <g id="Groupe_48" data-name="Groupe 48" transform="translate(302.533 104.595)">
      <path id="Tracé_138" data-name="Tracé 138" d="M499.96,67.02a2.06,2.06,0,1,1,2.06-2.06A2.054,2.054,0,0,1,499.96,67.02Zm0-4.007a1.948,1.948,0,1,0,1.948,1.948A1.934,1.934,0,0,0,499.96,63.012Z" transform="translate(-497.9 -62.9)"/>
      <g id="Groupe_47" data-name="Groupe 47" transform="translate(0.861 0.712)">
        <path id="Tracé_139" data-name="Tracé 139" d="M502.56,66.635a.7.7,0,0,1-.075.262.672.672,0,0,1-.187.262,1.308,1.308,0,0,1-.337.225,1.028,1.028,0,0,1-.487.075,1.155,1.155,0,0,1-.375-.037,2.581,2.581,0,0,1-.3-.112.7.7,0,0,1-.262-.225c-.075-.075-.112-.187-.187-.262l-.112-.337a1.154,1.154,0,0,1-.037-.375,2.547,2.547,0,0,1,.075-.562,1.545,1.545,0,0,1,.262-.412,1.116,1.116,0,0,1,.412-.262,1.028,1.028,0,0,1,.487-.075,1.368,1.368,0,0,1,.562.112,1.02,1.02,0,0,1,.375.3.6.6,0,0,1,.112.337.265.265,0,0,1-.225.225c-.075,0-.112,0-.15-.037a.517.517,0,0,1-.112-.15,2.077,2.077,0,0,0-.225-.3.458.458,0,0,0-.337-.112.68.68,0,0,0-.524.225,1.112,1.112,0,0,0-.187.674,1.663,1.663,0,0,0,.075.487.635.635,0,0,0,.225.3.559.559,0,0,0,.375.112.633.633,0,0,0,.375-.112.546.546,0,0,0,.225-.337c.037-.075.037-.112.075-.15a.187.187,0,0,1,.3,0C502.522,66.523,502.56,66.56,502.56,66.635Z" transform="translate(-500.2 -64.8)"/>
      </g>
    </g>
  </g>
</svg>
